{
  "accessors": [
    {
      "bufferView": 2,
      "componentType": 5126,
      "count": 1428,
      "max": [
        0.28176724910736084,
        1.5135860443115234,
        0.21079431474208832
      ],
      "min": [
        -0.28078770637512207,
        1.0624712705612183,
        -0.16929523646831512
      ],
      "type": "VEC3"
    },
    {
      "bufferView": 2,
      "byteOffset": 17136,
      "componentType": 5126,
      "count": 1428,
      "max": [
        0.9922784566879272,
        0.9992498159408569,
        0.9993623495101929
      ],
      "min": [
        -0.9917577505111694,
        -0.7775932550430298,
        -0.9999970197677612
      ],
      "type": "VEC3"
    },
    {
      "bufferView": 1,
      "componentType": 5126,
      "count": 1428,
      "max": [
        0.5066729784011841,
        0.0
      ],
      "min": [
        0.0,
        0.0
      ],
      "type": "VEC2"
    },
    {
      "bufferView": 0,
      "componentType": 5125,
      "count": 7440,
      "type": "SCALAR"
    },
    {
      "bufferView": 2,
      "byteOffset": 34272,
      "componentType": 5126,
      "count": 1000,
      "max": [
        0.028934165835380554,
        0.0280609130859375,
        0.02445715107023716
      ],
      "min": [
        -0.14092020690441132,
        -0.028062105178833008,
        -0.031498439610004425
      ],
      "type": "VEC3"
    },
    {
      "bufferView": 2,
      "byteOffset": 46272,
      "componentType": 5126,
      "count": 1000,
      "max": [
        0.9999991655349731,
        1.0,
        0.8585708737373352
      ],
      "min": [
        -0.9999991655349731,
        -1.0,
        -0.9999991655349731
      ],
      "type": "VEC3"
    },
    {
      "bufferView": 1,
      "byteOffset": 11424,
      "componentType": 5126,
      "count": 1000,
      "max": [
        0.9936813712120056,
        1.0014684200286865
      ],
      "min": [
        -0.006783287040889263,
        0.0045535508543252945
      ],
      "type": "VEC2"
    },
    {
      "bufferView": 0,
      "byteOffset": 29760,
      "componentType": 5125,
      "count": 5568,
      "type": "SCALAR"
    },
    {
      "bufferView": 2,
      "byteOffset": 58272,
      "componentType": 5126,
      "count": 40257,
      "max": [
        0.8901834487915039,
        2.522930145263672,
        0.22801174223423004
      ],
      "min": [
        -0.8901834487915039,
        -0.008807661011815071,
        -0.20863284170627594
      ],
      "type": "VEC3"
    },
    {
      "bufferView": 2,
      "byteOffset": 541356,
      "componentType": 5126,
      "count": 40257,
      "max": [
        0.9999955892562866,
        0.9997912645339966,
        1.0
      ],
      "min": [
        -0.9999955892562866,
        -0.9999091625213623,
        -0.9999899864196777
      ],
      "type": "VEC3"
    },
    {
      "bufferView": 3,
      "componentType": 5126,
      "count": 40257,
      "max": [
        0.9999998807907104,
        0.9999476671218872,
        0.9999776482582092,
        1.0
      ],
      "min": [
        -0.9997966289520264,
        -0.9970704317092896,
        -0.9999889731407166,
        -1.0
      ],
      "type": "VEC4"
    },
    {
      "bufferView": 1,
      "byteOffset": 19424,
      "componentType": 5126,
      "count": 40257,
      "max": [
        0.8594896793365479,
        0.8812752366065979
      ],
      "min": [
        0.00018687175179366022,
        0.00010557575296843424
      ],
      "type": "VEC2"
    },
    {
      "bufferView": 1,
      "byteOffset": 341480,
      "componentType": 5126,
      "count": 40257,
      "max": [
        0.8594896793365479,
        0.8812752366065979
      ],
      "min": [
        0.00018687175179366022,
        0.00010557575296843424
      ],
      "type": "VEC2"
    },
    {
      "bufferView": 0,
      "byteOffset": 52032,
      "componentType": 5125,
      "count": 163428,
      "type": "SCALAR"
    },
    {
      "bufferView": 2,
      "byteOffset": 1024440,
      "componentType": 5126,
      "count": 43008,
      "max": [
        0.06672433018684387,
        2.3677310943603516,
        0.14111416041851044
      ],
      "min": [
        -0.06672433018684387,
        2.3480095863342285,
        0.12502454221248627
      ],
      "type": "VEC3"
    },
    {
      "bufferView": 2,
      "byteOffset": 1540536,
      "componentType": 5126,
      "count": 43008,
      "max": [
        0.9768856763839722,
        0.973456621170044,
        0.6806299090385437
      ],
      "min": [
        -0.9768856763839722,
        -0.9734587073326111,
        -0.6824925541877747
      ],
      "type": "VEC3"
    },
    {
      "bufferView": 0,
      "byteOffset": 705744,
      "componentType": 5125,
      "count": 64512,
      "type": "SCALAR"
    },
    {
      "bufferView": 2,
      "byteOffset": 2056632,
      "componentType": 5126,
      "count": 195,
      "max": [
        0.009733482263982296,
        0.009508473798632622,
        0.02714795619249344
      ],
      "min": [
        -0.12171952426433563,
        -0.009509469382464886,
        0.02433623932301998
      ],
      "type": "VEC3"
    },
    {
      "bufferView": 2,
      "byteOffset": 2058972,
      "componentType": 5126,
      "count": 195,
      "max": [
        0.5895137190818787,
        0.5786709785461426,
        0.9999603033065796
      ],
      "min": [
        -0.5895137190818787,
        -0.5787056684494019,
        0.8077487349510193
      ],
      "type": "VEC3"
    },
    {
      "bufferView": 1,
      "byteOffset": 663536,
      "componentType": 5126,
      "count": 195,
      "max": [
        1.0008174180984497,
        1.0008536577224731
      ],
      "min": [
        0.0011359751224517822,
        0.0018036067485809326
      ],
      "type": "VEC2"
    },
    {
      "bufferView": 0,
      "byteOffset": 963792,
      "componentType": 5125,
      "count": 960,
      "type": "SCALAR"
    }
  ],
  "asset": {
    "extras": {
      "author": "NavjotS (https://sketchfab.com/NavjotS)",
      "license": "CC-BY-4.0 (http://creativecommons.org/licenses/by/4.0/)",
      "source": "https://sketchfab.com/3d-models/muscular-man-a63220fa28144c8dbe3bb6fc790205a8",
      "title": "Muscular Man"
    },
    "generator": "Sketchfab-12.65.0",
    "version": "2.0"
  },
  "bufferViews": [
    {
      "buffer": 0,
      "byteLength": 967632,
      "name": "floatBufferViews",
      "target": 34963
    },
    {
      "buffer": 0,
      "byteLength": 665096,
      "byteOffset": 967632,
      "byteStride": 8,
      "name": "floatBufferViews",
      "target": 34962
    },
    {
      "buffer": 0,
      "byteLength": 2061312,
      "byteOffset": 1632728,
      "byteStride": 12,
      "name": "floatBufferViews",
      "target": 34962
    },
    {
      "buffer": 0,
      "byteLength": 644112,
      "byteOffset": 3694040,
      "byteStride": 16,
      "name": "floatBufferViews",
      "target": 34962
    }
  ],
  "buffers": [
    {
      "byteLength": 4338152,
      "uri": "scene.bin"
    }
  ],
  "images": [
    {
      "uri": "textures/Body_baseColor.png"
    },
    {
      "uri": "textures/Body_normal.png"
    },
    {
      "uri": "textures/Iris_baseColor.png"
    }
  ],
  "materials": [
    {
      "doubleSided": true,
      "name": "Bottom",
      "pbrMetallicRoughness": {
        "baseColorFactor": [
          0.00490059,
          0.0143513,
          0.0135768,
          1.0
        ],
        "metallicFactor": 0.0,
        "roughnessFactor": 0.677273
      }
    },
    {
      "doubleSided": true,
      "name": "OuterEye.001",
      "pbrMetallicRoughness": {
        "baseColorFactor": [
          0.8,
          0.8,
          0.8,
          1.0
        ],
        "metallicFactor": 0.0,
        "roughnessFactor": 0.222727
      }
    },
    {
      "doubleSided": true,
      "name": "Body",
      "normalTexture": {
        "index": 1
      },
      "pbrMetallicRoughness": {
        "baseColorTexture": {
          "index": 0
        },
        "metallicFactor": 0.0,
        "roughnessFactor": 0.5687881097560976
      }
    },
    {
      "doubleSided": true,
      "name": "EyeLash",
      "pbrMetallicRoughness": {
        "baseColorFactor": [
          0.0253925,
          0.0124929,
          0.00560135,
          1.0
        ],
        "metallicFactor": 0.0
      }
    },
    {
      "doubleSided": true,
      "name": "Iris",
      "pbrMetallicRoughness": {
        "baseColorTexture": {
          "index": 2
        },
        "metallicFactor": 0.0,
        "roughnessFactor": 0.209091
      }
    }
  ],
  "meshes": [
    {
      "name": "Object_0",
      "primitives": [
        {
          "attributes": {
            "NORMAL": 1,
            "POSITION": 0,
            "TEXCOORD_0": 2
          },
          "indices": 3,
          "material": 0,
          "mode": 4
        }
      ]
    },
    {
      "name": "Object_1",
      "primitives": [
        {
          "attributes": {
            "NORMAL": 5,
            "POSITION": 4,
            "TEXCOORD_0": 6
          },
          "indices": 7,
          "material": 1,
          "mode": 4
        }
      ]
    },
    {
      "name": "Object_2",
      "primitives": [
        {
          "attributes": {
            "NORMAL": 9,
            "POSITION": 8,
            "TANGENT": 10,
            "TEXCOORD_0": 11,
            "TEXCOORD_1": 12
          },
          "indices": 13,
          "material": 2,
          "mode": 4
        }
      ]
    },
    {
      "name": "Object_3",
      "primitives": [
        {
          "attributes": {
            "NORMAL": 15,
            "POSITION": 14
          },
          "indices": 16,
          "material": 3,
          "mode": 4
        }
      ]
    },
    {
      "name": "Object_4",
      "primitives": [
        {
          "attributes": {
            "NORMAL": 18,
            "POSITION": 17,
            "TEXCOORD_0": 19
          },
          "indices": 20,
          "material": 4,
          "mode": 4
        }
      ]
    }
  ],
  "nodes": [
    {
      "children": [
        1
      ],
      "matrix": [
        1.0,
        0.0,
        0.0,
        0.0,
        0.0,
        2.220446049250313e-16,
        -1.0,
        0.0,
        0.0,
        1.0,
        2.220446049250313e-16,
        0.0,
        0.0,
        0.0,
        0.0,
        1.0
      ],
      "name": "Sketchfab_model"
    },
    {
      "children": [
        2
      ],
      "name": "root"
    },
    {
      "children": [
        3,
        5,
        7,
        9,
        11
      ],
      "matrix": [
        1.0,
        0.0,
        0.0,
        0.0,
        0.0,
        2.220446049250313e-16,
        1.0,
        0.0,
        0.0,
        -1.0,
        2.220446049250313e-16,
        0.0,
        0.0,
        0.0,
        0.0,
        1.0
      ],
      "name": "GLTF_SceneRootNode"
    },
    {
      "children": [
        4
      ],
      "matrix": [
        1.0,
        0.0,
        0.0,
        0.0,
        0.0,
        1.0,
        0.0,
        0.0,
        0.0,
        0.0,
        1.0,
        0.0,
        0.0,
        0.006229870952665806,
        0.0,
        1.0
      ],
      "name": "Shorts_1"
    },
    {
      "mesh": 0,
      "name": "Object_4"
    },
    {
      "children": [
        6
      ],
      "matrix": [
        0.8197076916694641,
        0.0,
        0.0,
        0.0,
        0.0,
        0.8197076916694641,
        0.0,
        0.0,
        0.0,
        0.0,
        0.8197076916694641,
        0.0,
        0.04589790850877762,
        2.3575618267059326,
        0.11581864207983017,
        1.0
      ],
      "name": "OuterEye_2"
    },
    {
      "mesh": 1,
      "name": "Object_6"
    },
    {
      "children": [
        8
      ],
      "name": "LowPoly_5"
    },
    {
      "mesh": 2,
      "name": "Object_8"
    },
    {
      "children": [
        10
      ],
      "name": "EyeLashes_6"
    },
    {
      "mesh": 3,
      "name": "Object_10"
    },
    {
      "children": [
        12
      ],
      "matrix": [
        0.8197076916694641,
        0.0,
        0.0,
        0.0,
        0.0,
        0.8197076916694641,
        0.0,
        0.0,
        0.0,
        0.0,
        0.8197076916694641,
        0.0,
        0.04589790850877762,
        2.3575618267059326,
        0.11581864207983017,
        1.0
      ],
      "name": "Iris_9"
    },
    {
      "mesh": 4,
      "name": "Object_12"
    }
  ],
  "samplers": [
    {
      "magFilter": 9729,
      "minFilter": 9987,
      "wrapS": 10497,
      "wrapT": 10497
    }
  ],
  "scene": 0,
  "scenes": [
    {
      "name": "Sketchfab_Scene",
      "nodes": [
        0
      ]
    }
  ],
  "textures": [
    {
      "sampler": 0,
      "source": 0
    },
    {
      "sampler": 0,
      "source": 1
    },
    {
      "sampler": 0,
      "source": 2
    }
  ]
}
